<mxfile host="app.diagrams.net" modified="2021-05-31T02:09:39.332Z" agent="5.0 (Windows NT 10.0; Win64; x64) AppleWebKit/537.36 (KHTML, like Gecko) Chrome/90.0.4430.212 Safari/537.36" etag="yXr98sFjoNsrcZzdHgNJ" version="14.7.3" type="github">
  <diagram id="A-jWaRKIaV030nlQbw6_" name="Page-1">
    <mxGraphModel dx="800" dy="490" grid="1" gridSize="10" guides="1" tooltips="1" connect="1" arrows="1" fold="1" page="1" pageScale="1" pageWidth="850" pageHeight="1400" math="0" shadow="0">
      <root>
        <mxCell id="0" />
        <mxCell id="1" parent="0" />
        <mxCell id="RsLs8QxlF3rUz4GGcx0Q-1" value="Admin" style="shape=umlActor;verticalLabelPosition=bottom;verticalAlign=top;html=1;outlineConnect=0;" vertex="1" parent="1">
          <mxGeometry x="250" y="230" width="70" height="90" as="geometry" />
        </mxCell>
        <mxCell id="RsLs8QxlF3rUz4GGcx0Q-4" value="" style="endArrow=classic;html=1;" edge="1" parent="1">
          <mxGeometry width="50" height="50" relative="1" as="geometry">
            <mxPoint x="140" y="100" as="sourcePoint" />
            <mxPoint x="210" y="100" as="targetPoint" />
          </mxGeometry>
        </mxCell>
        <mxCell id="RsLs8QxlF3rUz4GGcx0Q-5" value="" style="shape=image;verticalLabelPosition=bottom;labelBackgroundColor=#ffffff;verticalAlign=top;aspect=fixed;imageAspect=0;image=data:image/png,iVBORw0KGgoAAAANSUhEUgAAAOEAAADhCAMAAAAJbSJIAAABj1BMVEX/////x4zyURlN1t4KWF4nvsr1YyIFO0DuWh/5+Pj/4bL3URYATlQAWGCwUzdCv8cARk0znqUANDkegIdC1N3luoXDUSjxWBjz/f3Jc1DoXiY2uL237fEjkZndYCji+Plu3OPUgVr4YBrS8fP/xopUyNHtSQDi6uu/ztDMkXhvztaygWel3uL/zZH0VgCE4ef+7ujxPQDyhWYAMTz+5tr82s72ekn6tZ7xcDnzZDP1Zyj1f1r70MH839T3mHf5qpP0dVL6nGb5jlX/1KD9s3kWZ235vKv2lHf0b0X8qXD2hl32lH73gVL1lW/+v4blxpZgv73Sr4D+yqGjuLo/c3eJo6QAIilkiItJZ2q1kYKwSindbkD6yLnefUz3fURcrrB1l4mExLiZi2wmR0f0on2di2uVwrFRYlaqwKiAfGXDo3iXp5vRwJdgaFq/waA6WVF9z8i/yq+mn4CDtKZyhHQASlz6o3OEeFzLrIFYcWUAJTj+yZ3+2bT/6tE1d3PAxcB7XFCRXEB/jIFsYVO1bkgkbTd+AAASA0lEQVR4nN2diV8TZxrHZ0YSEpM0iKZpbd3adJy6x6QJBAgBBQxQiRDFo7pbl10qeFCPag+3hda2u3/4vnNl5r1m3msS6e/Tokxikm+e532O931nRtM4lR+xeD8vJ92t28WJEWvtzqfpAd4aK46NXKVi8U5agHe+GB81nqfi3XQAb30xPj4h/+mKCvwgHSvmJ8eBJD9ece3UB6fW5Bkn0hiLt1xCST89fcLRaWnCsdspEN7zCOUQT3iSJ5xQD5h/4AHKDMXiOZ/wnLSfFi8qJ/x0PJD4pyue8glPvd2EEoinfUL5gZguocRQLLuAZWnAtAnFEdccxPLa208oEW3WTivgS59QQW3zthPK1jbHgHDUNfgQCCfcInpYGgXh+MTpU8PTuVEQTp4+c2JoKqNWHA5h5o9PODzEkREODXF0hBf+8ISZIUWbERIOyU9HSTgcRJzw7+oJJymE5ZEQlv6xoBiw8SXNhkMZijjhO835hkrAVudPVMJhIBIICwXjkjrAmVothnAIQ5FEaBSsGVWAi7VsNo4wfUQiIUBcVARYzyYQpp74yYSGYd1XBhhPmPpQpBEaTQWIHmACYdp+SiVUgOgDJhGmjEgnNGTH4kwty0aoBJHq7DGEhlxEbQWAyYThpzsv/HYf0hDjCAuWRF5sdNgJB4hnPhsuoVEwxKub9gCQgTAzKkKjMC/6hr0QkIUwMypCwxIsw/fqWT7CzKgIDeuayNutRwHZCC+MitBorvO/2yUIkI3QjTYjITSa3Dkj36kJEGZGRlio8gbUHgzISpgZFaFhLfO91xzso+yE5VERGs0lnreaQQGZCcFQHBEh11DMt2vChJlR2RAkfvbNp5cxE3IQZs6/J6rPpAgN63NWwEUckIcwhU6KjdBosnZSHRyQi1B9x89IaFiMPooNQk5C9YjMhFssgJcIPspJqNxPWQnZ4uksyYSchKoRmQkLV5MB14km5CVUvJrBTGhYc0mADSIfN6HiochOaFhJ9eke0Uf5CTNnBKSEMCEptsg+ykf4N1cf8uu8AkKj2YolRFsKEcK/aKKn78hVbYERY6c0yJmCl1D4FCUlhPEZg5wpjhlhXMYgFaQShNyIagjjJvo3qSYUI+RFVERYWKa9Ad73yhJyIioipBuRGkiPHSElnFJzoQQhH6IqQqNJXqwhdk2yhFyIygitKdLLN+JMKE7Ig6iM0GiSqlNsAlERIQeiOkKLNLVImrsQI9RGT0iaz4jJ9pyEfuUdariVt++m+A6GuFTBSYhpmN1TYEMsYTTiAWv/nJAglJ7U4Cc0CmisiY8z2WxFxobSHb8AITadEVOSOiZckSOURRSxIdJhxCfDbMeWJJT0UwFCw4J7/XgnrW1IE8ohChHCbhrvpG1blyaU8lMRQthN4520tqrLEzKlDJWEcOVGmQb2Aa/YXITlT8j6KFGSq2txbhqf7vs6FyFal7KXbwqrNgNp9RNNqIQwEVEtodEMXzlu+sIzoRrCJETVhOFkxlKMk9ZW7ONKGGmh6NOkINmbujrCBETFhOGexXyyCVURxiMqJgzXoeKGYUfXlRLGIionDAZiTMkG6rXjTBgMxJhs2NZV2zAOUTVhIWiD28kmVEgYg6ia0PB3ScW09wMTqiSkIyon9Dso+hxUaEIuwqRrKw6P0M/59EDTtkVsmLmQpPMUUfgkbOiFGupsfsSECrqnqHibRWHCz+NDaScEVEzI2/GLEnrtRZ4WSoNyJg1CTkRRQi+YUkNpR9fTI+TzU2FCt26jLRtCJlROyIcoTOhurqEmi36aNuTzU3Eb3qcnC6+1T5GQB1Gc0JmrobW/q3rKhByI4oROQqTs1duxUydkH4rihM4pX1tEwhpswlQI2Y0oTOh2F+Tp7o49BEJmRHHCq7TeCU4VqRGyIooTOlM1xPX7mqkPhZARUZjQqAJCkpPWNu0hEbJFG3HCukae70bjTHqEAJFhlUac0KIQdlAnTSL81/vC+piiXSWETTIhUs8wEP61XhVWjaj6n88oIcxreRIh5qSJhNWcsEiRDnyGVAlxJ8UIp8f/vbtbVkJIRkyVkOCkKOH0VzZ4jlnZpRI6/uf/UfV/d354f/WPV/2HHa9Mj5AwDglOihBOP7Htk0C2uUshrF6dmprqWLkpR7mclZ2dWuhUF6bmc/U2+NtZ9/iC93B1tjfVa9eHSNjBARHCB7oLCBArFELLmT7I73mrP1lryem1F60Z7bLlXBtgxttF0Nhx/3BnNfNIj6OKkBhLd3AnhQmn9/WuR9g1b1AJV/a0fE5rbPV6ddClzfXmrgHCrbbW6O3t5bbAg71eG/zY2qq3tK0trdFJg9Ai1TRYTYrbsOKb8ORJ/SGVsL2ltQBhr7dZbWiz1s7Ojkeo3d+0clUAZzk/ZnuzgHB5Fp0vUkRYJ9WltY0EL518ZHcHhI/jvLTtemkL+GSz43yZgNCaA48cWQGh87A39z6bCmGV1FvU+gmEoZPGEl5uaUvzWmNqajkHfrGWG1odEFbr9R5404ENF6aWgQ2vzaA7XtQQur0F3h8SnBQmrOgnGQg7U46X5tfX57JgHM4A27mE+cX7mlYdEM6trwMbLu+gu5YUEV4l9fjtJMIJ2z6ZOA6BnYBjzrrBsm0Be2r5GUC41wZ/u7TgEGq+l2pWQ1uw0K9aEeECaZ6GFEqjhEEydOUnRDzjW1bV+d9yBNKj++fZK6u6bW5krap7JDgcPDcFG7rzNNhcW5INpw/CYdilEhLkxmjn/x7l2SkQLhHmS/HuFyXUo4SUfEjQqm26tu/q9g7lKeoJ5whz3rXZBMIXoCAN0oVtlhkJqyu2GZQJep/2dOWE64R1iyQbgqIb/A66D1B7mzorYRX0K4PR29U3Ev1UDaG7boGuPZE6C4hwG3rAI7yTO5ugnYEJnQisz1Ke1gmU/VqJDRuE9cMkwnH4uN8+fZCkXTNC2DWf0p534cKFEye8/xQQepsxkDVgYlkaEk4+gx6+zjjhlLkRJTyp+xGKoBMEya0Bo+v4CYTT+2KEZT1K2DWf055Iml+UXMdH0kVthQAYIaxED5tPWQkz182wTgCVgkl9okpCby8GsnGP2FqEhA90QcKXphkhtM2HHIiS+2nQxiyWEBmGdGfDBIUa4KYx/q3Ohv5ZJXAwJc3ShISgZIMIXzITZmw94qZ6TKzBh6LkvjYkmBLbw9BLKzAh3dcwPTf10ILx5kcRZfcmwr0ntuwEEb6whQkH+aKre29Rpj9XDeFgfykSakiAAeH0a4Rwl/4pMV0HlV63a5smw7ejhjDYIwzv8ybNJYaE8DCMG0y4HoIy1ox4SFwuLSshHJwXBE0CtXWSAkLkMBdh2eT4xwpW1yLXF15iJkSGIR9h5imMGJ9qzkgTRs63iA5EcuHtE3qdU1Qx0QLXLhrEYv+1NGH0IoPMhBXksM1FmEE9ID4SSxOGgNH5NnLh7RNOYoe5AJ2UCCm+br8gRwiduxbJiOTC2yWcHD9ADzO3Fp5u8MQagPjNN9619gPCEg8hdP5hZDaWXJY6hNOPKph5OQmdlAgRRmNN+cZuNLveeO7kFvN5QFgqlfwfjITw1T/Cwo1clgLC6SeEw7yEj1EjDvAeX3d4BiPzxnU/c5rXPcLS2Ffbuq0f3CsxEiKnq4c9IrksBYQHhPHJ0Tz5IOgLeETl54NC5zH6TZgvzwDC4hN3phX8+LHERoicyx1xUwrhNikAcTRPvp6SnAAYLHzJG6ipzfMnyhOvwrd3RiP/+fjhogFhlwJd/jfOITQlukB29GAFDUjAiOUnke/3oChyTYUwmpJLGmWEGfQVnrv1avTIQzSpmGcy0AzmWknkuhiDRp+4LkMl5GiefL1EjAhqBsRzKxjhwwxUabwqilzbZJD0+Qh5midPWEp8iBKau6grdzNQIq6ApMF/fZpg+YJStKkjRFMiiDVopfMUc+Vv70U/lf1dMiHpLkm1uKKNRsjVWnjCUmIZjz6oK1//HhqI20WR60T5KbH2AwegrgsQYl3i8wx2BH2O/uN30K+3ha715aVESklD0zkB/Qd7kVfYkW3kwMH30K+vhK7X5s3ucxJO8mv6CTIO7NePsCPP0LEyBnemSdfcI19M2FtIJJc0NE2P8+sB+iKVn9C2s4LOltj7Y3CsSbhuIuVawk753eEj/EmAEJ3N0vUXr1EjPttHjViEnHs7/tqXxMsmat5kBh9hRcSGk8+QV7EPMLNuo0fs1z9CRhS7fqlTnHIVbfq2CCE+F6LjZn2AxpoKNNturwhdg9bJ+sStJlQdiBGiLmg/QSOLvY/Fmm3oe+kLmdCZOOUq2gQJxx9gnx6LNfo4dgT+CmapRoy9e8ClOlfRZu+LEU6jLqi/QKcp7a/Q6INo1aIRxt8BYnMohJNYSjyYxk7SeZHw5vM0H42/zVzrCgcgCHBihMh+DkdYrLH3MUPDj69QjJhwXX3tJk+Lbz9D79bNKJznCVrXACvGvzkl1iTeMKjBkw+F0qGjSYyHEGsSZG+SY03i/deO2I1oPxI04Ti6lAxe6wG2JJIkYqyxkm8TmGd/C8Fc4QhLifo+VtckySbEGpb7zGgtZiO+EAZ0NzgiSkiABEJCXcN277VDNkTRVOEbEYuUB/GxkyATI2S8L1meLdhgZ7PxEaIpUUB4rKkzAYIeg8WI9sfvykkaEI817PcHZEmKq1ZBShZ5jYtPcKxhv3ceS1IkBTI+8XUx5A8B1TU89z9Mjqf2D9TCl1UW32wCUVBdw3d/7qS8b1ZlAY0C18wsWfZOGGuaifcjg5QQT+0rjCdWxSknT6ivDj4H771kExBX5fmAEfkmLokahINCjvsG660YxKhzSBAST3vgJAzqGv57OmvaIn0obkiHGVc5BbFG9z6KyH25QVa03c0QhFeVzhSerA1VsUbs3uogLeYbP3cPTRTTXqlllRAW+KYuyXLqmoSJC7q8azgCzCMI08xms/LJwkVU4abz0T2I/EYM//rzUdfDtK/URBAL7qmGcIRSkhJBXcMdRomIAaa+Wq/zIxbmVzb6/dWNKzmIEb1Wk4j6Va5aBkO8iNV6jcW5XrvDibhheyy2vTEfYbQUpMS+FKCmvZn45e6ti5++hxyeA2bksOBm1w73zETqIQUpsS+QCFHEYnFi7Pbdby9+FMF0V1PZCWe902S8zwSVfNKArLfijkV0dwMWi2Nrt+9c/MQ76G2hYkccnGXhIrYHiAXJLlEFIEAsDrZ1FoF+AZiNTo0L0frhZNSK/ZBQrktUAwgQ4f25wGuLY7/+9iVPQO0E5wJ5RoxMsMikRPkxGOhiaMXBJt3SM56c0TyE/DScYClwLQUhgAkrFLKI77h+yohYuOKfduh/uLCynRcGNBUCgiR4D9tL/q63D47RiAXvlCffYJFwKpoSzb5EJUNS/i6KeDbLg2itRAkjEyyCKdE8FLlpdLx+hxBLY4Od4WyIOYgwEmtyPOt5A8CbyvmAbkURS/8NT9FgM+JqlDAyDyIycaoqS6CKZo3S/yLnSjEhzkOEoRELxKtUxAMqjTFR5W8PzFh6P0KYYyFs9p1zK8NPGcYaTj7lMQbS10HaKEHnLLLkjEK7C+1qGoRTzi4xnSEY6s1aEQk0zIhoXgj9l4PQTM9DA+XvOJV46VfkeiEsfgrXoJFFB/Zoat5M00MDvQFtRuk39MpELEZEatCgxWBuMEx1hWi88r8XoVDKiohGzSDtF1YYAVPI8jS9WauigExWhI1o+zPLbKFmaAb0tZ7Fr7CcbESkkfCHYqGXTGj2j4ZnQE+NvTrKmBxQc8jntnsOopVsw/7hMCIMqlYPZUxExFjsjZxlXU3qgk099RRB0aXZOmdaRI0IGPt6ggVN2flCKS1u1rmKG/4y29SHG2BwzcC+mmREnvoF4JmHl4YdYAhqXa7XmRF5WnrAN6rxhyo/16kzNsQF5o3kID+MIn5StbiVDSATjMg0fQjMN/MWuCesxvomy6oUw/Sh2dffLvOFasy5kAkBNd6IZh9451tnvoga61v1uhW3VSOmCjVdvFEjMGhm6Sq+3huKPLlmArybb9/Yo6oxs7QwbzWJmOgWDIdNP7zZOg7GQ9Samft82eW0nK2aA8T5AZnjloc3j1qNY0g3UL7Ruj+3dG3h6nyubjU9rfRX+yBeHh0tArbj45gsYrkpsGr9H4+dw6cdIzd3AAAAAElFTkSuQmCC;" vertex="1" parent="1">
          <mxGeometry x="230" y="50" width="110" height="110" as="geometry" />
        </mxCell>
        <mxCell id="RsLs8QxlF3rUz4GGcx0Q-7" value="Pasien" style="shape=umlActor;verticalLabelPosition=bottom;verticalAlign=top;html=1;outlineConnect=0;" vertex="1" parent="1">
          <mxGeometry x="50" y="60" width="70" height="90" as="geometry" />
        </mxCell>
        <mxCell id="RsLs8QxlF3rUz4GGcx0Q-10" value="" style="endArrow=classic;html=1;" edge="1" parent="1">
          <mxGeometry width="50" height="50" relative="1" as="geometry">
            <mxPoint x="350" y="100" as="sourcePoint" />
            <mxPoint x="440" y="100" as="targetPoint" />
          </mxGeometry>
        </mxCell>
        <mxCell id="RsLs8QxlF3rUz4GGcx0Q-11" value="" style="shape=image;verticalLabelPosition=bottom;labelBackgroundColor=#ffffff;verticalAlign=top;aspect=fixed;imageAspect=0;image=https://st4.depositphotos.com/8440746/21876/v/600/depositphotos_218762236-stock-illustration-healthcare-icon-vector-female-doctor.jpg;" vertex="1" parent="1">
          <mxGeometry x="460" y="40" width="120" height="120" as="geometry" />
        </mxCell>
        <mxCell id="RsLs8QxlF3rUz4GGcx0Q-12" value="Dokter" style="shape=umlActor;verticalLabelPosition=bottom;verticalAlign=top;html=1;outlineConnect=0;" vertex="1" parent="1">
          <mxGeometry x="485" y="240" width="70" height="90" as="geometry" />
        </mxCell>
        <mxCell id="RsLs8QxlF3rUz4GGcx0Q-13" value="" style="endArrow=classic;html=1;" edge="1" parent="1">
          <mxGeometry width="50" height="50" relative="1" as="geometry">
            <mxPoint x="600" y="100" as="sourcePoint" />
            <mxPoint x="700" y="100" as="targetPoint" />
          </mxGeometry>
        </mxCell>
      </root>
    </mxGraphModel>
  </diagram>
</mxfile>
